<svg xmlns="http://www.w3.org/2000/svg" viewBox="0 0 128 128">
  <defs>
    <linearGradient id="g" x1="0" y1="0" x2="1" y2="1">
      <stop offset="0%" stop-color="#6366F1"/>
      <stop offset="100%" stop-color="#22D3EE"/>
    </linearGradient>
  </defs>
  <rect width="128" height="128" rx="24" fill="#0F172A"/>
  <g transform="translate(24,24)">
    <path d="M40 0c8 0 16 6 16 14v6h4c6 0 10 5 10 11v33c0 6-4 11-10 11H10C4 85 0 80 0 74V31c0-6 4-11 10-11h4v-6C14 6 22 0 30 0h10z" fill="url(#g)"/>
    <rect x="16" y="37" width="56" height="34" rx="6" fill="#0EA5E9" opacity=".25"/>
    <circle cx="32" cy="54" r="6" fill="#22D3EE"/>
    <rect x="44" y="50" width="16" height="8" rx="4" fill="#22D3EE"/>
  </g>
</svg>
